<?xml version="1.0" encoding="UTF-8"?>
<svg version="1.1" xmlns="http://www.w3.org/2000/svg" width="104" height="75">
<path d="M0 0 C1.06154297 -0.02416992 1.06154297 -0.02416992 2.14453125 -0.04882812 C6.66828286 -0.05304018 9.48662295 0.60868647 13.125 3.3125 C13.78757813 2.8278125 14.45015625 2.343125 15.1328125 1.84375 C18.79898621 -0.032412 21.97016855 -0.22217126 26 -0.1875 C27.0674646 -0.18435791 27.0674646 -0.18435791 28.15649414 -0.18115234 C34.08235175 -0.00242842 37.03315466 1.12085355 41.125 5.3125 C41.62 6.3025 41.62 6.3025 42.125 7.3125 C44.05454332 7.59039564 44.05454332 7.59039564 46.3125 7.625 C51.5095885 8.10422279 53.57129945 9.5049637 57.125 13.3125 C59.85513626 17.58971347 60.125 20.34771586 60.125 25.3125 C61.115 25.9725 62.105 26.6325 63.125 27.3125 C63.48576355 29.37527466 63.48576355 29.37527466 63.46557617 31.94580078 C63.46534958 32.90664581 63.46512299 33.86749084 63.46488953 34.85745239 C63.44940567 35.89707123 63.43392181 36.93669006 63.41796875 38.0078125 C63.41372391 39.07039276 63.40947906 40.13297302 63.40510559 41.22775269 C63.38827389 44.63125646 63.35061303 48.03417433 63.3125 51.4375 C63.29745899 53.74087688 63.28376958 56.04426302 63.27148438 58.34765625 C63.24090386 64.00301307 63.18218945 69.65709852 63.125 75.3125 C55.535 75.3125 47.945 75.3125 40.125 75.3125 C39.63 64.9175 39.63 64.9175 39.125 54.3125 C37.13070584 56.04088827 35.13906434 57.77254537 33.16796875 59.52734375 C31.125 61.3125 31.125 61.3125 28.6875 63.125 C26.1960195 66.22967245 26.1960195 66.22967245 26.125 75.3125 C17.215 75.3125 8.305 75.3125 -0.875 75.3125 C-1.37 70.8575 -1.37 70.8575 -1.875 66.3125 C-2.205 65.3225 -2.535 64.3325 -2.875 63.3125 C-3.865 62.9825 -4.855 62.6525 -5.875 62.3125 C-6.679375 61.3225 -7.48375 60.3325 -8.3125 59.3125 C-10.87473651 56.31280848 -11.28680679 55.92195957 -14.875 55.3125 C-14.86714478 56.16799438 -14.86714478 56.16799438 -14.85913086 57.04077148 C-14.83841779 59.61050323 -14.8253581 62.18021747 -14.8125 64.75 C-14.80412109 65.64783203 -14.79574219 66.54566406 -14.78710938 67.47070312 C-14.78227539 68.75170898 -14.78227539 68.75170898 -14.77734375 70.05859375 C-14.76948853 71.24473267 -14.76948853 71.24473267 -14.76147461 72.45483398 C-14.875 74.3125 -14.875 74.3125 -15.875 75.3125 C-17.58272358 75.39963831 -19.29398649 75.41950007 -21.00390625 75.41015625 C-22.55561523 75.40532227 -22.55561523 75.40532227 -24.13867188 75.40039062 C-25.22728516 75.39201172 -26.31589844 75.38363281 -27.4375 75.375 C-29.0762207 75.36823242 -29.0762207 75.36823242 -30.74804688 75.36132812 C-33.45708495 75.34949826 -36.16601599 75.33301543 -38.875 75.3125 C-38.91258423 74.09348999 -38.91258423 74.09348999 -38.95092773 72.84985352 C-39.06649118 69.19139248 -39.18939584 65.53321472 -39.3125 61.875 C-39.35181641 60.59560547 -39.39113281 59.31621094 -39.43164062 57.99804688 C-39.47353516 56.78310547 -39.51542969 55.56816406 -39.55859375 54.31640625 C-39.59525146 53.19049072 -39.63190918 52.0645752 -39.66967773 50.90454102 C-39.58718045 48.38396559 -39.58718045 48.38396559 -40.875 47.3125 C-41.23483807 44.21957609 -41.24640492 41.11102711 -41.3125 38 C-41.35826172 37.13181641 -41.40402344 36.26363281 -41.45117188 35.36914062 C-41.49512912 32.87886709 -41.46546002 30.7343242 -40.875 28.3125 C-37.9140625 25.953125 -37.9140625 25.953125 -34.875 24.3125 C-33.934953 22.39854143 -33.934953 22.39854143 -33.8125 20.375 C-32.8195478 15.03291716 -29.77101908 12.70956669 -25.5 9.5625 C-22.875 8.3125 -22.875 8.3125 -19.375 7.9375 C-15.03293821 7.16213182 -13.7336408 5.56817424 -10.875 2.3125 C-7.17289441 -0.1555704 -4.28387746 -0.01929675 0 0 Z M-2.875 4.3125 C-2.875 4.6425 -2.875 4.9725 -2.875 5.3125 C-0.565 5.3125 1.745 5.3125 4.125 5.3125 C4.125 4.9825 4.125 4.6525 4.125 4.3125 C1.815 4.3125 -0.495 4.3125 -2.875 4.3125 Z M23.125 4.3125 C23.125 4.6425 23.125 4.9725 23.125 5.3125 C24.775 5.3125 26.425 5.3125 28.125 5.3125 C28.125 4.9825 28.125 4.6525 28.125 4.3125 C26.475 4.3125 24.825 4.3125 23.125 4.3125 Z M-27.875 19.3125 C-28.205 20.9625 -28.535 22.6125 -28.875 24.3125 C-28.215 23.9825 -27.555 23.6525 -26.875 23.3125 C-27.205 21.9925 -27.535 20.6725 -27.875 19.3125 Z " fill="#16082F" transform="translate(40.875,-0.3125)"/>
<path d="M0 0 C1.04285156 0.14824219 2.08570312 0.29648438 3.16015625 0.44921875 C5.9375 1.3125 5.9375 1.3125 7.80859375 3.14453125 C8.9375 5.3125 8.9375 5.3125 8.9375 9.3125 C9.5975 8.9825 10.2575 8.6525 10.9375 8.3125 C20.33143939 8.0094697 20.33143939 8.0094697 22.9375 9.3125 C24.0625 11.8125 24.0625 11.8125 24.9375 14.3125 C25.5975 14.6425 26.2575 14.9725 26.9375 15.3125 C27.3125 17.5 27.3125 17.5 26.9375 20.3125 C25.10880326 22.40082653 23.24697441 23.69586791 20.9375 25.3125 C20.2775 25.3125 19.6175 25.3125 18.9375 25.3125 C18.9375 25.9725 18.9375 26.6325 18.9375 27.3125 C20.5153125 26.7865625 20.5153125 26.7865625 22.125 26.25 C25.9375 25.3125 25.9375 25.3125 30.9375 26.3125 C30.9375 39.5125 30.9375 52.7125 30.9375 66.3125 C25.9875 66.3125 21.0375 66.3125 15.9375 66.3125 C15.9375 58.3925 15.9375 50.4725 15.9375 42.3125 C13.9575 41.9825 11.9775 41.6525 9.9375 41.3125 C9.70804688 41.86808594 9.47859375 42.42367187 9.2421875 42.99609375 C7.57727018 45.95206971 5.47917129 47.99776994 3.0625 50.375 C2.19882813 51.23222656 1.33515625 52.08945312 0.4453125 52.97265625 C-2.0625 55.3125 -2.0625 55.3125 -4.3359375 56.859375 C-6.22684526 58.18087696 -6.22684526 58.18087696 -6.671875 60.35546875 C-6.71828125 61.06316406 -6.7646875 61.77085938 -6.8125 62.5 C-6.895 63.758125 -6.9775 65.01625 -7.0625 66.3125 C-9.0425 66.3125 -11.0225 66.3125 -13.0625 66.3125 C-13.13198076 58.15016524 -13.18530118 49.98795383 -13.21793652 41.82539654 C-13.2335991 38.0352656 -13.25484778 34.24533684 -13.28881836 30.45532227 C-13.3213913 26.79839399 -13.33934855 23.1416603 -13.34713173 19.48459816 C-13.35267901 18.08871204 -13.3635115 16.69283669 -13.37969017 15.29703331 C-13.40143429 13.3435541 -13.40272515 11.38987949 -13.40307617 9.4362793 C-13.40973801 8.3237529 -13.41639984 7.2112265 -13.42326355 6.06498718 C-13.0625 3.3125 -13.0625 3.3125 -11.6542511 1.47541809 C-7.89733206 -1.26935094 -4.43742997 -0.68733426 0 0 Z " fill="#F7C33A" transform="translate(69.0625,4.6875)"/>
<path d="M0 0 C2.14729141 0.28073073 4.29283193 0.57488499 6.4375 0.875 C7.63246094 1.03742187 8.82742187 1.19984375 10.05859375 1.3671875 C11.51458984 1.68042969 11.51458984 1.68042969 13 2 C14.48679725 4.97359449 14.11112605 7.66299179 14.09765625 10.9765625 C14.0962413 11.66181 14.09482635 12.3470575 14.09336853 13.05307007 C14.08776675 15.24375761 14.07521406 17.4343433 14.0625 19.625 C14.05748522 21.10937352 14.05292228 22.59374865 14.04882812 24.078125 C14.03779677 27.71878315 14.02053099 31.35938164 14 35 C9.82412255 36.39195915 7.86525224 34.82323219 4 33 C5.78950231 36.80269242 7.56854757 38.38404574 11.09375 40.4375 C13.78200737 42.40690374 14.84451119 43.37071258 15.65234375 46.64013672 C15.78710975 49.75251665 15.6990778 52.7663236 15.5 55.875 C15.46390625 56.94492187 15.4278125 58.01484375 15.390625 59.1171875 C15.29664956 61.7484998 15.16545954 64.37237515 15 67 C12.36 67 9.72 67 7 67 C6.938125 65.7625 6.87625 64.525 6.8125 63.25 C6.40015032 59.89818619 6.25161486 59.23801406 3.6875 56.8125 C2.800625 56.214375 1.91375 55.61625 1 55 C-3 50.45945946 -3 50.45945946 -3 48 C-4.485 47.505 -4.485 47.505 -6 47 C-4.625 45 -4.625 45 -3 43 C-2.34 43 -1.68 43 -1 43 C-0.67 41.35 -0.34 39.7 0 38 C-0.40089844 38.433125 -0.80179688 38.86625 -1.21484375 39.3125 C-4.69600045 42.72261269 -6.94615608 44.42238618 -11.9375 44.375 C-13.29409299 44.27987996 -14.65015829 44.16528674 -16 44 C-15.98839844 44.83402344 -15.97679688 45.66804688 -15.96484375 46.52734375 C-15.91200207 53.11745662 -16.11444932 59.46906374 -17 66 C-20.96 66 -24.92 66 -29 66 C-29.76508013 57.29721349 -30.12866176 48.73470423 -30 40 C-30.99 39.67 -31.98 39.34 -33 39 C-34.1577506 35.52674819 -34.06866652 32.63932552 -34 29 C-33.34 29 -32.68 29 -32 29 C-32 27.68 -32 26.36 -32 25 C-29.00446363 24.11144836 -27.48360967 23.80394203 -24.54296875 24.99609375 C-23.76566406 25.47175781 -22.98835938 25.94742187 -22.1875 26.4375 C-21.39730469 26.91058594 -20.60710938 27.38367188 -19.79296875 27.87109375 C-18.90544922 28.42990234 -18.90544922 28.42990234 -18 29 C-19.175625 27.88625 -19.175625 27.88625 -20.375 26.75 C-24.42754919 22.50447227 -24.42754919 22.50447227 -25 20 C-24.18184828 16.13307537 -23.19533548 12.86933489 -19.9375 10.5 C-18 10 -18 10 -16 10 C-15.67 9.67 -15.34 9.34 -15 9 C-12.8125 8.625 -12.8125 8.625 -10 9 C-7.94720004 10.60118397 -5.94348501 12.26776336 -4 14 C-3.01 14.33 -2.02 14.66 -1 15 C-1.825 14.21625 -2.65 13.4325 -3.5 12.625 C-6 10 -6 10 -6 8 C-6.66 8 -7.32 8 -8 8 C-6.98565881 5.46414701 -6.34981128 4.21863205 -4 2.75 C-2 2 -2 2 0 2 C0 1.34 0 0.68 0 0 Z " fill="#6366F1" transform="translate(37,4)"/>
<path d="M0 0 C0.66 0.33 1.32 0.66 2 1 C2.40729228 3.32156597 2.74438677 5.6568787 3 8 C3.825 7.360625 4.65 6.72125 5.5 6.0625 C9.23191406 3.53586919 12.55723303 3.30639772 17 3 C18.125 7.75 18.125 7.75 17 10 C19.475 10.495 19.475 10.495 22 11 C22.33 11.99 22.66 12.98 23 14 C23.99 14 24.98 14 26 14 C25.67 15.98 25.34 17.96 25 20 C25.66 20 26.32 20 27 20 C27.66 28.91 28.32 37.82 29 47 C24.71 47 20.42 47 16 47 C16 39.08 16 31.16 16 23 C11.14786828 21.38262276 8.81798756 20.77057202 4 21 C4 20.34 4 19.68 4 19 C2.68 19 1.36 19 0 19 C0 18.01 0 17.02 0 16 C-0.66 16 -1.32 16 -2 16 C-2.05423638 14.08364783 -2.09289963 12.16685075 -2.125 10.25 C-2.14820312 9.18265625 -2.17140625 8.1153125 -2.1953125 7.015625 C-2.00487687 4.07529894 -1.52670104 2.47638122 0 0 Z " fill="#FBBD29" transform="translate(70,23)"/>
<path d="M0 0 C1.04285156 0.14824219 2.08570312 0.29648438 3.16015625 0.44921875 C5.9375 1.3125 5.9375 1.3125 7.80859375 3.14453125 C8.9375 5.3125 8.9375 5.3125 8.9375 9.3125 C9.5975 8.9825 10.2575 8.6525 10.9375 8.3125 C20.33143939 8.0094697 20.33143939 8.0094697 22.9375 9.3125 C24.0625 11.8125 24.0625 11.8125 24.9375 14.3125 C25.5975 14.6425 26.2575 14.9725 26.9375 15.3125 C27.3125 17.5 27.3125 17.5 26.9375 20.3125 C24.125 23.125 24.125 23.125 20.9375 25.3125 C19.9475 25.3125 18.9575 25.3125 17.9375 25.3125 C17.9375 24.3225 17.9375 23.3325 17.9375 22.3125 C17.298125 22.498125 16.65875 22.68375 16 22.875 C11.86415389 23.46583516 8.0523827 22.89521759 3.9375 22.3125 C3.73833984 21.39017578 3.73833984 21.39017578 3.53515625 20.44921875 C3.35855469 19.64097656 3.18195313 18.83273438 3 18 C2.82597656 17.19949219 2.65195313 16.39898438 2.47265625 15.57421875 C1.93863841 13.167099 1.93863841 13.167099 0.9375 10.3125 C-0.0525 10.3125 -1.0425 10.3125 -2.0625 10.3125 C-2.3925 8.9925 -2.7225 7.6725 -3.0625 6.3125 C-4.3825 6.6425 -5.7025 6.9725 -7.0625 7.3125 C-6.7325 8.9625 -6.4025 10.6125 -6.0625 12.3125 C-7.7125 12.9725 -9.3625 13.6325 -11.0625 14.3125 C-11.3925 20.2525 -11.7225 26.1925 -12.0625 32.3125 C-12.3925 32.3125 -12.7225 32.3125 -13.0625 32.3125 C-13.13670211 28.23747206 -13.1911257 24.16270608 -13.22729492 20.0871582 C-13.24237397 18.70102081 -13.2628405 17.31493106 -13.28881836 15.92895508 C-13.32523716 13.93591854 -13.34063018 11.94253277 -13.35546875 9.94921875 C-13.37903442 8.15037231 -13.37903442 8.15037231 -13.40307617 6.31518555 C-13.0625 3.3125 -13.0625 3.3125 -11.65722656 1.44335938 C-7.86892664 -1.2430162 -4.44100739 -0.68788838 0 0 Z " fill="#F4D87B" transform="translate(69.0625,4.6875)"/>
<path d="M0 0 C2.14729141 0.28073073 4.29283193 0.57488499 6.4375 0.875 C7.63246094 1.03742187 8.82742187 1.19984375 10.05859375 1.3671875 C11.51458984 1.68042969 11.51458984 1.68042969 13 2 C14.48679725 4.97359449 14.11112605 7.66299179 14.09765625 10.9765625 C14.0962413 11.66181 14.09482635 12.3470575 14.09336853 13.05307007 C14.08776675 15.24375761 14.07521406 17.4343433 14.0625 19.625 C14.05748522 21.10937352 14.05292228 22.59374865 14.04882812 24.078125 C14.03779677 27.71878315 14.02053099 31.35938164 14 35 C12.515 35.495 12.515 35.495 11 36 C9.38671875 34.85546875 9.38671875 34.85546875 7.6875 33.1875 C4.63700949 30.3901353 2.08238808 28.99570441 -2 28 C-0.02 30.97 -0.02 30.97 2 34 C-0.375 33.8125 -0.375 33.8125 -3 33 C-4.59660706 30.11090151 -5 28.30941204 -5 25 C-1.535 24.505 -1.535 24.505 2 24 C1.5206753 19.68607774 0.2542015 17.83430453 -3 15 C-2.34 15 -1.68 15 -1 15 C-1.825 14.21625 -2.65 13.4325 -3.5 12.625 C-6 10 -6 10 -6 8 C-6.66 8 -7.32 8 -8 8 C-6.98565881 5.46414701 -6.34981128 4.21863205 -4 2.75 C-2 2 -2 2 0 2 C0 1.34 0 0.68 0 0 Z " fill="#6366F1" transform="translate(37,4)"/>
<path d="M0 0 C2.475 0.495 2.475 0.495 5 1 C5.495 5.455 5.495 5.455 6 10 C7.32 10.33 8.64 10.66 10 11 C10 26.84 10 42.68 10 59 C2.41 59 -5.18 59 -13 59 C-13.33 52.07 -13.66 45.14 -14 38 C-15.98 38 -17.96 38 -20 38 C-20 38.99 -20 39.98 -20 41 C-20.66 41 -21.32 41 -22 41 C-22 41.66 -22 42.32 -22 43 C-24.475 43.495 -24.475 43.495 -27 44 C-25.57532992 42.33788491 -24.14892249 40.6779885 -22.7109375 39.02734375 C-21.59062473 37.69984985 -20.50986845 36.33769403 -19.4765625 34.94140625 C-18.98929688 34.30074219 -18.50203125 33.66007812 -18 33 C-17.566875 32.401875 -17.13375 31.80375 -16.6875 31.1875 C-15 30 -15 30 -9 31 C-9 38.92 -9 46.84 -9 55 C-4.05 55 0.9 55 6 55 C5.67 41.8 5.34 28.6 5 15 C1.37 15.33 -2.26 15.66 -6 16 C-6 15.34 -6 14.68 -6 14 C-4.03277992 12.61876037 -2.03131672 11.28511874 0 10 C0.33 9.67 0.66 9.34 1 9 C0.91062197 7.47480724 0.75462854 5.95318071 0.5625 4.4375 C0.46066406 3.61121094 0.35882813 2.78492188 0.25390625 1.93359375 C0.12822266 0.97646484 0.12822266 0.97646484 0 0 Z " fill="#07022E" transform="translate(94,16)"/>
</svg>